<svg width="129" height="210" viewBox="0 0 129 210" fill="none" xmlns="http://www.w3.org/2000/svg">
<rect x="49" y="106" width="23" height="104" fill="#3D3C3C"/>
<mask id="path-2-outside-1_1_48" maskUnits="userSpaceOnUse" x="-0.498016" y="0" width="130" height="134" fill="black">
<rect fill="white" x="-0.498016" width="130" height="134"/>
<path fill-rule="evenodd" clip-rule="evenodd" d="M74.7754 60.0456C81.1539 53.3594 85 44.1577 85 34C85 13.5655 74.9345 5 54.5 5C34.0655 5 12 13.5655 12 34C12 37.041 12.3669 39.9963 13.0588 42.8241C12.8007 42.9685 12.5578 43.1553 12.3393 43.3863L6.3258 49.7414C4.68337 51.4771 5.6306 54.3428 7.98394 54.7578L17.4747 56.4312C18.165 56.5529 18.8136 56.4352 19.3618 56.1526C20.845 58.1338 22.5222 59.9614 24.3652 61.6072C11.9665 68.2915 7.99999 79.4082 7.99999 91.9921C7.99999 112.427 18.4593 128.992 58.5 128.992C98.5406 128.992 124 117.5 124 82.5C95.8653 78.0867 89.4902 72.1518 83.553 66.6246C81.0702 64.3133 78.6641 62.0733 74.7754 60.0456Z"/>
</mask>
<path fill-rule="evenodd" clip-rule="evenodd" d="M74.7754 60.0456C81.1539 53.3594 85 44.1577 85 34C85 13.5655 74.9345 5 54.5 5C34.0655 5 12 13.5655 12 34C12 37.041 12.3669 39.9963 13.0588 42.8241C12.8007 42.9685 12.5578 43.1553 12.3393 43.3863L6.3258 49.7414C4.68337 51.4771 5.6306 54.3428 7.98394 54.7578L17.4747 56.4312C18.165 56.5529 18.8136 56.4352 19.3618 56.1526C20.845 58.1338 22.5222 59.9614 24.3652 61.6072C11.9665 68.2915 7.99999 79.4082 7.99999 91.9921C7.99999 112.427 18.4593 128.992 58.5 128.992C98.5406 128.992 124 117.5 124 82.5C95.8653 78.0867 89.4902 72.1518 83.553 66.6246C81.0702 64.3133 78.6641 62.0733 74.7754 60.0456Z" fill="#DCDF56"/>
<path d="M74.7754 60.0456L71.1576 56.5943L66.5682 61.4051L72.4637 64.4791L74.7754 60.0456ZM13.0588 42.8241L15.5003 47.1874L18.8194 45.3302L17.9155 41.6358L13.0588 42.8241ZM12.3393 43.3863L15.9711 46.8228L15.9711 46.8228L12.3393 43.3863ZM6.3258 49.7414L2.69401 46.3048L2.69401 46.3048L6.3258 49.7414ZM7.98394 54.7578L7.11569 59.6818L7.1157 59.6818L7.98394 54.7578ZM17.4747 56.4312L18.343 51.5072L18.343 51.5072L17.4747 56.4312ZM19.3618 56.1526L23.3644 53.1561L20.8299 49.7706L17.0708 51.7083L19.3618 56.1526ZM24.3652 61.6072L26.738 66.0083L33.0126 62.6256L27.6955 57.8777L24.3652 61.6072ZM124 82.5H129V78.2232L124.775 77.5604L124 82.5ZM83.553 66.6246L86.9599 62.965L86.9599 62.965L83.553 66.6246ZM78.3932 63.4969C85.6644 55.875 90 45.4351 90 34H80C80 42.8804 76.6434 50.8439 71.1576 56.5943L78.3932 63.4969ZM90 34C90 23.0334 87.2947 14.1734 80.8102 8.16847C74.4072 2.23898 65.2808 0 54.5 0V10C64.1537 10 70.2773 12.0438 74.0157 15.5056C77.6726 18.8921 80 24.5321 80 34H90ZM54.5 0C43.6974 0 32.1286 2.24631 23.0726 7.51532C13.8393 12.8874 7 21.6062 7 34H17C17 25.9593 21.1934 20.1781 28.1015 16.1588C35.1868 12.0364 44.8681 10 54.5 10V0ZM7 34C7 37.4445 7.4157 40.7987 8.20201 44.0124L17.9155 41.6358C17.318 39.1939 17 36.6375 17 34H7ZM10.6172 38.4608C9.91892 38.8515 9.27449 39.3505 8.70751 39.9497L15.9711 46.8228C15.8412 46.9601 15.6825 47.0855 15.5003 47.1874L10.6172 38.4608ZM8.70753 39.9497L2.69401 46.3048L9.9576 53.178L15.9711 46.8228L8.70753 39.9497ZM2.69401 46.3048C-1.68582 50.9334 0.840142 58.5752 7.11569 59.6818L8.85218 49.8337C10.4211 50.1104 11.0526 52.0208 9.9576 53.178L2.69401 46.3048ZM7.1157 59.6818L16.6065 61.3553L18.343 51.5072L8.85218 49.8337L7.1157 59.6818ZM16.6065 61.3553C18.4039 61.6722 20.1597 61.3665 21.6527 60.5969L17.0708 51.7083C17.4675 51.5039 17.926 51.4337 18.343 51.5072L16.6065 61.3553ZM15.3591 59.1491C17.0419 61.3969 18.9445 63.47 21.035 65.3367L27.6955 57.8777C26.0999 56.4529 24.648 54.8708 23.3644 53.1561L15.3591 59.1491ZM13 91.9921C13 80.5614 16.4826 71.5371 26.738 66.0083L21.9925 57.206C7.45042 65.0459 2.99999 78.2549 2.99999 91.9921H13ZM58.5 123.992C39.0257 123.992 27.8416 119.941 21.5352 114.399C15.3818 108.992 13 101.381 13 91.9921H2.99999C2.99999 103.038 5.84789 113.927 14.9343 121.911C23.8678 129.761 37.9336 133.992 58.5 133.992V123.992ZM119 82.5C119 98.5768 113.282 108.468 103.578 114.655C93.4306 121.123 78.2336 123.992 58.5 123.992V133.992C78.8071 133.992 96.3601 131.115 108.953 123.087C121.988 114.778 129 101.423 129 82.5H119ZM80.1461 70.2842C83.211 73.1375 86.7552 76.4446 93.3412 79.5124C99.7832 82.5132 108.919 85.1954 123.225 87.4396L124.775 77.5604C110.947 75.3913 102.827 72.8994 97.5637 70.4476C92.4441 68.0629 89.8322 65.6389 86.9599 62.965L80.1461 70.2842ZM72.4637 64.4791C75.7016 66.1675 77.6829 67.9912 80.1461 70.2842L86.9599 62.965C84.4576 60.6354 81.6265 57.9791 77.0871 55.6121L72.4637 64.4791Z" fill="white" mask="url(#path-2-outside-1_1_48)"/>
<path d="M12.3393 43.3863C13.8191 41.8224 16.4156 42.2803 17.2713 44.2559L20.7486 52.2845C21.6983 54.4773 19.8281 56.8462 17.4747 56.4312L7.98394 54.7578C5.63061 54.3428 4.68337 51.4771 6.32581 49.7414L12.3393 43.3863Z" fill="#4D4D4D"/>
<path d="M85 34C85 54.4346 69.4345 71 49 71C28.5655 71 12 54.4346 12 34C12 13.5655 34.0655 5 54.5 5C74.9345 5 85 13.5655 85 34Z" fill="#949494"/>
<path d="M124 82.5C124 117.5 98.5406 128.992 58.5 128.992C18.4594 128.992 8 112.427 8 91.9921C8 71.5576 18.4594 54.9921 58.5 54.9921C93.5 61.5 73 74.5 124 82.5Z" fill="#949494"/>
<path d="M89.7497 104C81.5 110 78.1061 114.5 58.5 114.5C38.8939 114.5 23.2497 101.426 23.2497 89C23.2497 76.5736 40 67 56 84.5C71.7503 94 107 88 89.7497 104Z" fill="#737373"/>
</svg>
